<?xml version="1.0" encoding="utf-8"?>
<!-- Generator: Adobe Illustrator 23.0.1, SVG Export Plug-In . SVG Version: 6.00 Build 0)  -->
<svg version="1.1" id="Layer_1" xmlns="http://www.w3.org/2000/svg" xmlns:xlink="http://www.w3.org/1999/xlink" x="0px" y="0px"
	 viewBox="0 0 512 512" style="enable-background:new 0 0 512 512;" xml:space="preserve">
<style type="text/css">
	.st0{display:none;fill:#600F0F;stroke:#000000;stroke-miterlimit:10;}
	.st1{display:none;}
	.st2{display:inline;}
	.st3{fill:#FFFFFF;}
</style>
<rect x="-89" y="-11" class="st0" width="645" height="534"/>
<g class="st1">
	<g class="st2">
		<path class="st3" d="M231.5,254.3L4.9,480.9c-6.3,6.3-6.3,16.5,0,22.8c3.1,3.2,7.3,4.7,11.4,4.7c4.1,0,8.2-1.6,11.4-4.7L256,275.4
			l228.3,228.3c3.2,3.2,7.3,4.7,11.4,4.7s8.2-1.6,11.4-4.7c6.3-6.3,6.3-16.5,0-22.8L280.5,254.3L507.3,27.5c6.3-6.3,6.3-16.5,0-22.8
			c-6.3-6.3-16.5-6.3-22.8,0L256,233.2L27.5,4.7C21.2-1.6,11-1.6,4.7,4.7c-6.3,6.3-6.3,16.5,0,22.8L231.5,254.3z"/>
	</g>
</g>
<path class="st3" d="M495,74.8L437.2,17L256,200.8L74.8,17L17,74.8L200.8,256L17,437.2L74.8,495L256,311.2L437.2,495l57.8-57.8
	L311.2,256L495,74.8z"/>
</svg>
