<?xml version="1.0" encoding="utf-8"?>
<!-- Generator: Adobe Illustrator 23.0.1, SVG Export Plug-In . SVG Version: 6.00 Build 0)  -->
<svg version="1.1" id="Layer_1" xmlns="http://www.w3.org/2000/svg" xmlns:xlink="http://www.w3.org/1999/xlink" x="0px" y="0px"
	 viewBox="0 0 19.5 15.9" style="enable-background:new 0 0 19.5 15.9;" xml:space="preserve">
<style type="text/css">
	.st0{display:none;fill:#BC3333;}
	.st1{display:none;fill-opacity:0;}
</style>
<rect x="-4.2" y="-5" class="st0" width="26" height="24"/>
<rect x="-0.2" y="-2" class="st1" width="20" height="20"/>
<rect x="-3.2" y="-4" class="st1" width="24" height="24"/>
<path d="M11.5,0c-4.4,0-8,3.6-8,8c0,0.2,0,0.4,0,0.4L0,5.6V9l5.3,4.2L10.7,9V5.6L6.3,9C6.2,8.6,6.2,8.3,6.2,7.9
	c0-2.9,2.4-5.3,5.3-5.3s5.3,2.4,5.3,5.3c0,2.9-2.4,5.3-5.3,5.3v2.7c4.4,0,8-3.6,8-8S16,0,11.5,0z"/>
</svg>
